<svg xmlns="http://www.w3.org/2000/svg" width="449.129" height="456.006" viewBox="0 0 449.129 456.006">
  <g id="manbike" transform="translate(-113.739 -160.378)">
    <rect id="Rectangle_3" data-name="Rectangle 3" width="40.738" height="12.9" transform="translate(257.544 465.742) rotate(44.62)" fill="#535461"/>
    <path id="Path_118" data-name="Path 118" d="M425.63,530.572s16.832-8.881,23.336-14.6a88.541,88.541,0,0,1,12.581-9.187l21.116-12.853L526.8,490.54l2.037,7.469s3.395,10.864-30.554,20.369-50.923,24.443-50.923,24.443S425.63,550.262,425.63,530.572Z" transform="translate(-161.17 -78.524)" fill="#db8b8b"/>
    <path id="Path_119" data-name="Path 119" d="M449.156,559.572c-1.2.917-1.8,1.446-1.8,1.446S425.63,568.487,425.63,548.8c0,0,1.052-.557,2.716-1.487a18.787,18.787,0,0,0,16.01,8.956h2.3Z" transform="translate(-161.17 -96.748)" opacity="0.1"/>
    <path id="Path_120" data-name="Path 120" d="M528.2,501.744c-1.888,4-8.4,10.572-29.915,16.594-27.573,7.72-43.95,19.011-49.124,23-1.2.917-1.8,1.446-1.8,1.446s-21.727,7.469-21.727-12.221c0,0,1.052-.557,2.716-1.487,5.045-2.763,15.725-8.827,20.6-13.138a88.269,88.269,0,0,1,12.581-9.186l21.116-12.853,7.862-.6,36.271-2.791,2.037,7.469A5.519,5.519,0,0,1,528.2,501.744Z" transform="translate(-161.17 -78.511)" opacity="0.05"/>
    <path id="Path_121" data-name="Path 121" d="M417.623,543,399.63,554.881l52.688,44.133s7.74-4.753,3.666-10.185c0,0-13.579-11.543-14.258-27.838l-4.074-5.432h-2.3A18.788,18.788,0,0,1,417.622,543Z" transform="translate(-152.823 -95.364)" fill="#abb1d1"/>
    <path id="Path_122" data-name="Path 122" d="M558.879,501.744c-10.864-5.248-37.384-5.812-37.384-5.812l-.285-2.641,36.271-2.791,2.037,7.469A5.622,5.622,0,0,1,558.879,501.744Z" transform="translate(-191.853 -78.511)" opacity="0.1"/>
    <path id="Path_123" data-name="Path 123" d="M517.778,461.187s31.912.679,40.059,7.469L553.763,386.5H509.63Z" transform="translate(-188.136 -45.124)" fill="#abb1d1"/>
    <path id="Path_124" data-name="Path 124" d="M517.778,460.687s31.912.679,40.059,7.469L553.763,386H509.63Z" transform="translate(-188.136 -44.963)" opacity="0.05"/>
    <path id="Path_126" data-name="Path 126" d="M558.53,422.307s79.881-2.716,81.51,7.611-79.881,5.975-79.881,5.975S553.642,429.369,558.53,422.307Z" transform="translate(-203.251 -56.515)" fill="#535461"/>
    <path id="Path_127" data-name="Path 127" d="M558.53,422.307s79.881-2.716,81.51,7.611-79.881,5.975-79.881,5.975S553.642,429.369,558.53,422.307Z" transform="translate(-203.251 -56.515)" opacity="0.05"/>
    <rect id="Rectangle_5" data-name="Rectangle 5" width="14.129" height="122.812" transform="translate(276.485 407.094)" fill="#a8a8a8"/>
    <path id="Path_128" data-name="Path 128" d="M457.469,483.28v9.458c-4.7.611-9.506,1-14.129,1.147V483.28Z" transform="translate(-166.855 -76.193)" opacity="0.1"/>
    <path id="Path_129" data-name="Path 129" d="M442.992,466.854a52.778,52.778,0,0,1-5.907-.794c-7.659-1.467-26.969-4.542-32.163.679-6.518,6.518-4.345,17.932,13.043,19.561s47.277-2.716,53.259-9.241C471.224,477.032,460.408,468.191,442.992,466.854Z" transform="translate(-153.437 -69.945)" fill="#535461"/>
    <path id="Path_130" data-name="Path 130" d="M387.4,453.56l148.355-46.19,4.889,11.414L388.486,470.949Z" transform="translate(-100.588 -12.776)" fill="#a8a8a8"/>
    <path id="Path_131" data-name="Path 131" d="M452.23,532.8,559.283,427.38l5.975,8.691L463.094,542.581Z" transform="translate(-121.4 -19.2)" fill="#a8a8a8"/>
    <g id="wheel">
      <g id="right-wheel">
        <path id="Path_116" data-name="Path 116" d="M718.1,709.079l-4.25-66.471-.088-.143-4.291,1.494L689.72,701.543l-31.4-22.27,50.033-36.264.048-.143.285-.1,3.225-2.342-52.444-29.406-12.853,14.123,2.037,13.24,60.293,1.073v1.358l-61.433-1.1L645.2,624.7l17.579-19.317,26.29-30.669.468,1.27,5.568-6.111,20.736,3.714v-.822l1.358.041v1.025l30.8,5.513-28.741,57.475-4.189,3.035v.72l66.41-23.139-7.883,61.929-56.355-35.9-1.983-1.114,33.229,53.564Zm-2.716-64.054,3.972,62.044,27.193-11.8Zm-54.7,34.247,28.374,20.118,18.563-54.141Zm55.893-37.792,1.419.794,54.555,34.763,7.333-57.624Zm-4.821-4.889,1.7,2.75.3-.217,2.037-64.183L695.6,571.316l-5.54,6.111Zm-51.188-26.514L711.379,638.6l-.883-1.446-21.442-58.575L663.8,606.331Zm56.606-34.892-2.037,62.934,3.069-2.227L745.98,580.34Z" transform="translate(-231.658 -103.991)" fill="#535461"/>
        <path id="Path_125" data-name="Path 125" d="M709.67,556.12A79.772,79.772,0,0,0,688.343,559a78.477,78.477,0,0,0-10.5,3.714,79.915,79.915,0,1,0,31.817-6.593ZM709.4,696.049a60.333,60.333,0,0,1-25.054-115.208,59.6,59.6,0,0,1,9.886-3.51A60.327,60.327,0,1,1,709.4,696.049Z" transform="translate(-226.682 -99.577)" fill="#535461"/>
        <circle id="Ellipse_19" data-name="Ellipse 19" cx="8.698" cy="8.698" r="8.698" transform="translate(474.018 527.455)" fill="#535461"/>
      </g>
      <g id="left-wheel">
        <path id="Path_117" data-name="Path 117" d="M291.908,708.673l-4.257-66.5-.088-.143-4.291,1.494-19.745,57.611-31.4-22.263,50.02-36.264.048-.143.285-.1,3.225-2.342-52.444-29.406-12.846,14.123,2.037,13.24,60.306,1.1v1.358l-61.433-1.1L219,624.3l17.585-19.323,26.31-30.69.468,1.27,5.568-6.111,20.681,3.707v-.822l1.358.041V573.4l30.8,5.513-28.714,57.448-4.189,3.035v.72l66.4-23.139-7.883,61.929-56.355-35.9-1.983-1.114,33.229,53.557Zm-2.716-64.054,3.972,62.044,27.193-11.8Zm-54.712,34.241,28.374,20.118,18.563-54.141Zm55.893-37.792,1.419.794,54.555,34.763L353.681,619Zm-4.821-4.889,1.7,2.75.3-.217,2.037-64.183L269.4,570.917l-5.54,6.111Zm-51.208-26.521,50.814,28.517-.883-1.446-21.442-58.575L237.583,605.9Zm56.626-34.892-2.037,62.954L292,635.493,319.78,579.94Z" transform="translate(-94.835 -103.856)" fill="#535461"/>
        <path id="Path_136" data-name="Path 136" d="M361.455,618.009a79.588,79.588,0,0,0-16.1-32.984A80.04,80.04,0,1,0,363.4,635.6a79.824,79.824,0,0,0-1.949-17.592Zm-78.211,77.64a60.259,60.259,0,1,1,59.342-49.436,60.259,60.259,0,0,1-59.342,49.436Z" transform="translate(-89.906 -99.449)" fill="#535461"/>
        <circle id="Ellipse_17" data-name="Ellipse 17" cx="8.698" cy="8.698" r="8.698" transform="translate(184.641 527.184)" fill="#535461"/>
      </g>
    </g>
    <path id="Path_132" data-name="Path 132" d="M716.987,578.689a59.591,59.591,0,0,0-9.886,3.51l-6.491-18.135a78.466,78.466,0,0,1,10.5-3.714Z" transform="translate(-249.446 -100.935)" opacity="0.1"/>
    <path id="Path_133" data-name="Path 133" d="M650.526,533.746l-7.6,4.345-53.055-148.24-2.376-6.634,12.5-7.068,3.13,9.764Z" transform="translate(-164.822 -2.753)" fill="#a8a8a8"/>
    <path id="Path_134" data-name="Path 134" d="M603.12,385.914l-13.254,3.938-2.376-6.634,12.5-7.068Z" transform="translate(-164.822 -2.753)" opacity="0.1"/>
    <path id="Path_135" data-name="Path 135" d="M562.224,452.8l74.449-25.543s13.043,1.63,8.148,12.5l-74.986,22.277S558.429,463.123,562.224,452.8Z" transform="translate(-204.772 -58.209)" fill="#535461"/>
    <path id="Path_137" data-name="Path 137" d="M428.844,665.059a80.849,80.849,0,0,1-.962,12.425c-6.52-.455-13.256-1.134-19.855-1.813a60.83,60.83,0,0,0-.536-24.362c6.43-1.358,13-2.655,19.4-3.829a79.823,79.823,0,0,1,1.949,17.579Z" transform="translate(-155.346 -128.906)" opacity="0.1"/>
    <path id="Path_138" data-name="Path 138" d="M457.469,642.89v14.442H443.34V645.11C448.229,644.261,452.981,643.508,457.469,642.89Z" transform="translate(-166.855 -127.432)" opacity="0.1"/>
    <path id="Path_139" data-name="Path 139" d="M328.672,663.039s114.121-29.875,123.355-18.475,19.018,26.622-9.757,32.054-115.751-9.241-115.751-9.241Z" transform="translate(-129.352 -127.137)" fill="#a8a8a8"/>
    <path id="Path_140" data-name="Path 140" d="M401.406,594.206,386.9,607.48a60.431,60.431,0,0,0-8.664-9.017l13.539-14.143a80.645,80.645,0,0,1,9.628,9.886Z" transform="translate(-145.956 -108.63)" opacity="0.1"/>
    <path id="Path_141" data-name="Path 141" d="M252.94,564.522,338.253,475.4l2.723,20.648-83.69,76.622Z" transform="translate(-57.422 -34.616)" fill="#a8a8a8"/>
    <circle id="Ellipse_16" data-name="Ellipse 16" cx="8.698" cy="8.698" r="8.698" transform="translate(185.734 527.184)" opacity="0.1"/>
    <circle id="Ellipse_18" data-name="Ellipse 18" cx="8.698" cy="8.698" r="8.698" transform="translate(473.475 526.369)" opacity="0.1"/>
    <circle id="Ellipse_20" data-name="Ellipse 20" cx="17.388" cy="17.388" r="17.388" transform="translate(310.719 509.802)" opacity="0.1"/>
    <circle id="Ellipse_21" data-name="Ellipse 21" cx="17.388" cy="17.388" r="17.388" transform="translate(311.812 509.802)" fill="#535461"/>
    <rect id="Rectangle_6" data-name="Rectangle 6" width="9.241" height="32.278" rx="4.62" transform="matrix(0.801, -0.599, 0.599, 0.801, 320.855, 528.656)" fill="#6c63ff"/>
    <path id="Path_142" data-name="Path 142" d="M624.035,301.611l-1.616,20.444a45.9,45.9,0,0,0,.1,7.774c.211,2.288,0,6.294-2.241,12.4a71.218,71.218,0,0,0-4.393,24.375v23.268l-15.616-2.716s.679-32.591-2.037-38.022,2.037-53.639,2.037-53.639Z" transform="translate(-216.311 -15.91)" fill="#db8b8b"/>
    <path id="Path_143" data-name="Path 143" d="M623.237,311.741l-.815,10.314a45.857,45.857,0,0,0,.109,7.767c.21,2.288,0,6.294-2.241,12.412a71.218,71.218,0,0,0-4.393,24.375v23.268l-15.616-2.716s.679-32.591-2.037-38.022c-1.922-3.85-.1-29.155,1.127-43.6.509-5.941.91-10.042.91-10.042l23.764,6.111Z" transform="translate(-216.315 -15.91)" opacity="0.05"/>
    <path id="Path_144" data-name="Path 144" d="M506.661,516.151l-5.873,33.405a76.182,76.182,0,0,1-3.395,13.1c-3.442,9.411-1.242,22.6.428,29.8.74,3.178,1.358,5.187,1.358,5.187l-17.653,9.506-5.432-4.074v-2.716l-.679-60.428c-4.074-9.506-2.716-23.764,0-29.2a23.02,23.02,0,0,0,1.616-5.581,151.306,151.306,0,0,0,1.779-17.5s10.864-18.332,23.764-6.111c4.753,4.5,6.559,10.388,6.939,16.024A48.206,48.206,0,0,1,506.661,516.151Z" transform="translate(-176.326 -74.287)" fill="#db8b8b"/>
    <path id="Path_145" data-name="Path 145" d="M511.492,497.537c-9.417,5.595-25.8,7.177-32.482,7.591a151.305,151.305,0,0,0,1.779-17.5s10.864-18.332,23.764-6.111C509.306,486.015,511.112,491.9,511.492,497.537Z" transform="translate(-178.306 -74.277)" opacity="0.1"/>
    <path id="Path_146" data-name="Path 146" d="M517.219,434.667a124.246,124.246,0,0,0-20.369,13.579c-10.863,8.827-38.022,9.506-38.022,9.506V447.567c.679-12.221-10.864-25.8-26.48-63.823-9.974-24.28-7.211-38.022-3.911-44.812a16.324,16.324,0,0,1,3.911-5.432l84.871,16.3,3.035,9.1,6.471,19.419s-23.764,1.358-27.838,3.395-1.358,20.369-1.358,20.369C493.455,421.087,517.219,434.667,517.219,434.667Z" transform="translate(-161.097 -28.109)" fill="#abb1d1"/>
    <path id="Path_147" data-name="Path 147" d="M624.964,301.611l-.8,10.13c-11.814,3.395-20.247-7.414-20.247-7.414a31.091,31.091,0,0,0-3.626,1.215c.509-5.941.91-10.042.91-10.042Z" transform="translate(-217.24 -15.91)" opacity="0.1"/>
    <path id="Path_148" data-name="Path 148" d="M521.289,358.894c-.319,3.171-.319,5.16-.319,5.16s-15.616,12.9-42.1-6.79-50.244-14.258-50.244-14.258.278-1.575.842-4.074a16.324,16.324,0,0,1,3.911-5.432l84.871,16.3Z" transform="translate(-162.133 -28.109)" opacity="0.1"/>
    <path id="Path_149" data-name="Path 149" d="M579.009,238.163c-1.772,13.817-2.363,31.233-2.363,31.233C561.029,281.617,548.808,266,548.808,266c-14.747,3.958-21.68,16.866-24.945,28.13a75.2,75.2,0,0,0-2.892,18.719s-4.128,3.395-11.733,4.074c-7.19.6-17.5-1.27-30.364-10.864C452.394,286.37,428.63,291.8,428.63,291.8s4.753-27.159,15.616-35.306,19.011-18.332,32.591-49.565,41.417-23.764,41.417-23.764,1.358-6.111,26.48,0a40.922,40.922,0,0,1,16.547,8.766A51.757,51.757,0,0,1,579.009,238.163Z" transform="translate(-162.133 21.024)" fill="#fff"/>
    <path id="Path_150" data-name="Path 150" d="M595.876,203.275c-.034.9-.109,1.908-.231,3.028-1.358,12.221-2.716,10.864-17.653,13.579-9.288,1.691-14.116-6.07-16.438-12.181a38.447,38.447,0,0,1-1.894-6.83l32.591-5.432S596.155,194.347,595.876,203.275Z" transform="translate(-204.197 16.226)" fill="#db8b8b"/>
    <path id="Path_151" data-name="Path 151" d="M545.371,322.12a75.2,75.2,0,0,0-2.892,18.719s-4.128,3.395-11.733,4.074a6.328,6.328,0,0,1-.489-1.358c-1.358-6.111-11.543-16.974-11.543-16.974-6.79-6.111-8.148-16.974-8.148-16.974l-11.2-32.93-3.734-3.055s15.616-12.221,29.2-2.037,9.506,31.912,9.506,31.912l2.716,7.469C539.865,313.341,542.73,317.53,545.371,322.12Z" transform="translate(-183.642 -6.931)" opacity="0.05"/>
    <path id="Path_152" data-name="Path 152" d="M498.63,272.621l14.937,35.985s1.358,10.864,8.148,16.974c0,0,10.185,10.864,11.542,16.974s20.369,22.406,20.369,22.406,17.653,16.3,19.011,22.406c0,0,16.3,4.753,14.258,14.258,0,0,12.221-12.221,0-23.764s-28.517-35.307-28.517-35.307-9.506-25.122-18.332-32.591l-2.716-7.469s4.074-21.727-9.506-31.912S498.63,272.621,498.63,272.621Z" transform="translate(-184.605 -6.61)" fill="#db8b8b"/>
    <path id="Path_153" data-name="Path 153" d="M500.715,652.063l-17.653,9.506L477.63,657.5v-2.716a41.119,41.119,0,0,0,17.348-5.235c1.63-.923,3.164-1.833,4.393-2.634C500.084,650.054,500.715,652.063,500.715,652.063Z" transform="translate(-177.863 -128.723)" opacity="0.1"/>
    <path id="Path_154" data-name="Path 154" d="M521.084,229.255,530.59,266.6s-29.2,4.753-35.306,0-17.653-6.111-17.653-6.111,12.221-35.307,19.011-39.38S521.084,229.255,521.084,229.255Z" transform="translate(-177.863 8.239)" opacity="0.1"/>
    <path id="Path_155" data-name="Path 155" d="M521.084,227.255,530.59,264.6s-29.2,4.753-35.306,0-17.653-6.111-17.653-6.111,12.221-35.307,19.011-39.38S521.084,227.255,521.084,227.255Z" transform="translate(-177.863 8.881)" fill="#fff"/>
    <path id="Path_156" data-name="Path 156" d="M595.876,202.275a23.764,23.764,0,0,1-34.322,4.427,38.447,38.447,0,0,1-1.894-6.83l32.591-5.432S596.155,193.347,595.876,202.275Z" transform="translate(-204.197 16.547)" opacity="0.1"/>
    <path id="Path_157" data-name="Path 157" d="M597.158,172.981a23.764,23.764,0,0,1-47.528,0V171.8a23.771,23.771,0,1,1,47.528,1.181Z" transform="translate(-200.977 31.243)" fill="#db8b8b"/>
    <path id="Path_158" data-name="Path 158" d="M597.174,172.981a23.688,23.688,0,0,1-.9,6.477,9.146,9.146,0,0,1-5.486-.5c-2.539-1-4.719-2.716-7.156-3.952-6.864-3.476-15.032-2.791-22.637-1.643-3.775.57-8.059,1.1-11.026-1.3a3.48,3.48,0,0,1-.292-.258,23.771,23.771,0,0,1,47.528,1.181Z" transform="translate(-200.993 31.243)" opacity="0.1"/>
    <path id="Path_160" data-name="Path 160" d="M456.13,292s17.653,4.753,23.085,16.974S499.34,323.43,499.34,323.43" transform="translate(-170.961 -14.787)" opacity="0.05"/>
    <rect id="Rectangle_7" data-name="Rectangle 7" width="40.738" height="12.9" transform="translate(310.97 546.086)" fill="#535461"/>
    <path id="Path_161" data-name="Path 161" d="M491.1,650.416c3.646-2.037,6.844-4.074,7.122-4.916,0,0,9.2,9.709,17.4,12.724a41,41,0,0,1,7.869,3.911c3.245,2.037,7.876,4.434,12.079,4.434,0,0,9.506,8.148-8.827,9.506s-61.107-3.395-61.107-3.395l2.716-16.974h0A41.261,41.261,0,0,0,491.1,650.416Z" transform="translate(-174.011 -128.27)" fill="#abb1d1"/>
    <path id="hat" d="M524.11,149.069c1.446,4.536,8.392,4.678,11.957,8.019,1.854,1.738,2.716,4.3,4.753,5.853,2.831,2.159,6.919,1.684,10.524,1.168,7.258-1.032,15.053-1.65,21.6,1.48,2.322,1.107,4.406,2.655,6.83,3.558s5.432,1.012,7.4-.591c1.575-1.283,2.152-3.395,3.578-4.807,1.107-1.114,2.648-1.738,3.911-2.716,2.77-2.091,3.965-5.5,4.753-8.759,1.63-6.708,2.1-13.939-.679-20.3s-9.458-11.543-16.75-11.21c-2.234.1-4.413.679-6.64.923-5.805.591-11.542-1.358-17.368-1.691a9.893,9.893,0,0,0-4.977.679,9.083,9.083,0,0,0-2.994,2.682,28.6,28.6,0,0,0-5.337,11.868c-.679,3.252-.713,6.2-4.7,6.7C535.442,142.524,521.048,139.475,524.11,149.069Z" transform="translate(-192.648 40.455)" fill="#472727"/>
  </g>
</svg>
